<mxfile host="65bd71144e">
    <diagram id="26-9HnMbtWaFSrxwyBK6" name="Geral Simulação de Empréstimo">
        <mxGraphModel dx="1695" dy="795" grid="1" gridSize="10" guides="1" tooltips="1" connect="1" arrows="1" fold="1" page="1" pageScale="1" pageWidth="850" pageHeight="1100" math="0" shadow="0">
            <root>
                <mxCell id="0"/>
                <mxCell id="1" parent="0"/>
                <mxCell id="5" value="Frontend (web ou mobile)" style="swimlane;whiteSpace=wrap;html=1;" parent="1" vertex="1">
                    <mxGeometry x="40" y="40" width="200" height="480" as="geometry"/>
                </mxCell>
                <mxCell id="6" value="Web" style="rounded=1;whiteSpace=wrap;html=1;" parent="5" vertex="1">
                    <mxGeometry x="40" y="80" width="120" height="60" as="geometry"/>
                </mxCell>
                <mxCell id="7" value="Mobile" style="rounded=1;whiteSpace=wrap;html=1;" parent="5" vertex="1">
                    <mxGeometry x="40" y="160" width="120" height="60" as="geometry"/>
                </mxCell>
                <mxCell id="8" value="BFF" style="swimlane;whiteSpace=wrap;html=1;" parent="1" vertex="1">
                    <mxGeometry x="240" y="40" width="200" height="480" as="geometry"/>
                </mxCell>
                <mxCell id="9" value="BFF (Back for frondend)" style="rounded=1;whiteSpace=wrap;html=1;" parent="8" vertex="1">
                    <mxGeometry x="40" y="80" width="120" height="60" as="geometry"/>
                </mxCell>
                <mxCell id="46" value="BFF (Back for frondend)" style="rounded=1;whiteSpace=wrap;html=1;" vertex="1" parent="8">
                    <mxGeometry x="40" y="160" width="120" height="60" as="geometry"/>
                </mxCell>
                <mxCell id="14" style="edgeStyle=none;html=1;exitX=1;exitY=0.5;exitDx=0;exitDy=0;entryX=0;entryY=0.5;entryDx=0;entryDy=0;" parent="1" source="6" target="9" edge="1">
                    <mxGeometry relative="1" as="geometry"/>
                </mxCell>
                <mxCell id="15" style="edgeStyle=none;html=1;exitX=1;exitY=0.5;exitDx=0;exitDy=0;entryX=0;entryY=0.5;entryDx=0;entryDy=0;" parent="1" source="7" target="46" edge="1">
                    <mxGeometry relative="1" as="geometry"/>
                </mxCell>
                <mxCell id="16" value="Serviços de Cliente" style="swimlane;whiteSpace=wrap;html=1;" parent="1" vertex="1">
                    <mxGeometry x="440" y="40" width="200" height="480" as="geometry"/>
                </mxCell>
                <mxCell id="24" style="edgeStyle=none;html=1;exitX=0.5;exitY=1;exitDx=0;exitDy=0;entryX=0.5;entryY=0;entryDx=0;entryDy=0;" parent="16" source="18" target="19" edge="1">
                    <mxGeometry relative="1" as="geometry"/>
                </mxCell>
                <mxCell id="18" value="Dados Cadastrais" style="rounded=1;whiteSpace=wrap;html=1;" parent="16" vertex="1">
                    <mxGeometry x="40" y="160" width="120" height="60" as="geometry"/>
                </mxCell>
                <mxCell id="25" style="edgeStyle=none;html=1;exitX=0.5;exitY=1;exitDx=0;exitDy=0;entryX=0.5;entryY=0;entryDx=0;entryDy=0;" parent="16" source="19" target="20" edge="1">
                    <mxGeometry relative="1" as="geometry"/>
                </mxCell>
                <mxCell id="19" value="Riscos&lt;div&gt;Score do Cliente&lt;/div&gt;" style="rounded=1;whiteSpace=wrap;html=1;" parent="16" vertex="1">
                    <mxGeometry x="40" y="240" width="120" height="60" as="geometry"/>
                </mxCell>
                <mxCell id="20" value="Contratos Existentes&lt;div&gt;Refinanciamentos&lt;/div&gt;" style="rounded=1;whiteSpace=wrap;html=1;" parent="16" vertex="1">
                    <mxGeometry x="40" y="320" width="120" height="60" as="geometry"/>
                </mxCell>
                <mxCell id="23" style="edgeStyle=none;html=1;exitX=0.5;exitY=1;exitDx=0;exitDy=0;entryX=0.5;entryY=0;entryDx=0;entryDy=0;" parent="16" source="21" target="18" edge="1">
                    <mxGeometry relative="1" as="geometry"/>
                </mxCell>
                <mxCell id="21" value="Consolidador de dados de cliente" style="rounded=1;whiteSpace=wrap;html=1;" parent="16" vertex="1">
                    <mxGeometry x="40" y="80" width="120" height="60" as="geometry"/>
                </mxCell>
                <mxCell id="32" style="edgeStyle=none;html=1;entryX=0.5;entryY=0;entryDx=0;entryDy=0;exitX=0.808;exitY=0.017;exitDx=0;exitDy=0;exitPerimeter=0;" parent="16" source="9" target="21" edge="1">
                    <mxGeometry relative="1" as="geometry">
                        <Array as="points">
                            <mxPoint x="-63" y="60"/>
                            <mxPoint y="60"/>
                            <mxPoint x="100" y="60"/>
                        </Array>
                    </mxGeometry>
                </mxCell>
                <mxCell id="17" value="Parametros Gerais do Sistema" style="swimlane;whiteSpace=wrap;html=1;" parent="1" vertex="1">
                    <mxGeometry x="640" y="40" width="200" height="480" as="geometry"/>
                </mxCell>
                <mxCell id="33" value="Parametros Gerais não relacionados ao cliente" style="rounded=1;whiteSpace=wrap;html=1;" parent="17" vertex="1">
                    <mxGeometry x="40" y="80" width="120" height="60" as="geometry"/>
                </mxCell>
                <mxCell id="34" style="edgeStyle=none;html=1;entryX=0.5;entryY=0;entryDx=0;entryDy=0;exitX=0.5;exitY=0;exitDx=0;exitDy=0;" parent="1" source="9" target="33" edge="1">
                    <mxGeometry relative="1" as="geometry">
                        <mxPoint x="340" y="150" as="sourcePoint"/>
                        <Array as="points">
                            <mxPoint x="340" y="90"/>
                            <mxPoint x="420" y="90"/>
                            <mxPoint x="570" y="90"/>
                            <mxPoint x="640" y="90"/>
                            <mxPoint x="740" y="90"/>
                        </Array>
                    </mxGeometry>
                </mxCell>
                <mxCell id="35" value="Motor de Cálculo" style="swimlane;whiteSpace=wrap;html=1;" parent="1" vertex="1">
                    <mxGeometry x="840" y="40" width="200" height="480" as="geometry"/>
                </mxCell>
                <mxCell id="39" value="" style="edgeStyle=none;html=1;" parent="35" source="36" target="38" edge="1">
                    <mxGeometry relative="1" as="geometry"/>
                </mxCell>
                <mxCell id="36" value="Orquestrador de Motor de Cálculo" style="rounded=1;whiteSpace=wrap;html=1;" parent="35" vertex="1">
                    <mxGeometry x="40" y="80" width="120" height="60" as="geometry"/>
                </mxCell>
                <mxCell id="42" value="" style="edgeStyle=none;html=1;" parent="35" source="38" target="41" edge="1">
                    <mxGeometry relative="1" as="geometry"/>
                </mxCell>
                <mxCell id="38" value="Taxas e faixas de juros" style="rounded=1;whiteSpace=wrap;html=1;" parent="35" vertex="1">
                    <mxGeometry x="40" y="160" width="120" height="60" as="geometry"/>
                </mxCell>
                <mxCell id="41" value="Cálculo de simulação" style="rounded=1;whiteSpace=wrap;html=1;" parent="35" vertex="1">
                    <mxGeometry x="40" y="240" width="120" height="60" as="geometry"/>
                </mxCell>
                <mxCell id="37" style="edgeStyle=none;html=1;exitX=0.25;exitY=0;exitDx=0;exitDy=0;entryX=0.5;entryY=0;entryDx=0;entryDy=0;" parent="1" source="9" target="36" edge="1">
                    <mxGeometry relative="1" as="geometry">
                        <Array as="points">
                            <mxPoint x="310" y="80"/>
                            <mxPoint x="620" y="80"/>
                            <mxPoint x="790" y="80"/>
                            <mxPoint x="940" y="80"/>
                        </Array>
                    </mxGeometry>
                </mxCell>
                <mxCell id="44" style="edgeStyle=none;html=1;entryX=0;entryY=0.5;entryDx=0;entryDy=0;" parent="1" source="41" target="7" edge="1">
                    <mxGeometry relative="1" as="geometry">
                        <Array as="points">
                            <mxPoint x="940" y="480"/>
                            <mxPoint x="540" y="480"/>
                            <mxPoint x="60" y="480"/>
                            <mxPoint x="60" y="230"/>
                        </Array>
                    </mxGeometry>
                </mxCell>
                <mxCell id="45" style="edgeStyle=none;html=1;entryX=0;entryY=0.5;entryDx=0;entryDy=0;" parent="1" target="6" edge="1">
                    <mxGeometry relative="1" as="geometry">
                        <mxPoint x="940" y="340" as="sourcePoint"/>
                        <mxPoint x="80" y="230" as="targetPoint"/>
                        <Array as="points">
                            <mxPoint x="940" y="480"/>
                            <mxPoint x="540" y="480"/>
                            <mxPoint x="60" y="480"/>
                            <mxPoint x="60" y="150"/>
                        </Array>
                    </mxGeometry>
                </mxCell>
            </root>
        </mxGraphModel>
    </diagram>
    <diagram id="jub1BvMn1pz5g12l35cs" name="BFF">
        <mxGraphModel dx="2545" dy="795" grid="1" gridSize="10" guides="1" tooltips="1" connect="1" arrows="1" fold="1" page="1" pageScale="1" pageWidth="850" pageHeight="1100" math="0" shadow="0">
            <root>
                <mxCell id="0"/>
                <mxCell id="1" parent="0"/>
                <mxCell id="U2JALLylXtxmvCifsnrc-1" value="BFF - Orquestração de simulação para o frontend" style="swimlane;whiteSpace=wrap;html=1;" vertex="1" parent="1">
                    <mxGeometry x="-40" y="100" width="780" height="560" as="geometry"/>
                </mxCell>
                <mxCell id="U2JALLylXtxmvCifsnrc-12" style="edgeStyle=none;html=1;exitX=0.5;exitY=1;exitDx=0;exitDy=0;entryX=1;entryY=0.5;entryDx=0;entryDy=0;" edge="1" parent="U2JALLylXtxmvCifsnrc-1" source="U2JALLylXtxmvCifsnrc-2" target="U2JALLylXtxmvCifsnrc-11">
                    <mxGeometry relative="1" as="geometry">
                        <mxPoint x="210" y="420" as="targetPoint"/>
                        <Array as="points">
                            <mxPoint x="240" y="340"/>
                            <mxPoint x="240" y="420"/>
                        </Array>
                    </mxGeometry>
                </mxCell>
                <mxCell id="U2JALLylXtxmvCifsnrc-10" value="" style="edgeStyle=none;html=1;exitX=0.158;exitY=1;exitDx=0;exitDy=0;exitPerimeter=0;" edge="1" parent="U2JALLylXtxmvCifsnrc-1" source="U2JALLylXtxmvCifsnrc-2" target="U2JALLylXtxmvCifsnrc-9">
                    <mxGeometry relative="1" as="geometry">
                        <mxPoint x="190" y="250" as="sourcePoint"/>
                        <Array as="points">
                            <mxPoint x="200" y="290"/>
                            <mxPoint x="200" y="340"/>
                            <mxPoint x="190" y="340"/>
                        </Array>
                    </mxGeometry>
                </mxCell>
                <mxCell id="U2JALLylXtxmvCifsnrc-14" value="&amp;nbsp;1 - Faz chamda simultânea&amp;nbsp;&lt;div&gt;para o serviço de&amp;nbsp;&lt;/div&gt;&lt;div&gt;cliente e parametros&lt;/div&gt;&lt;div&gt;&lt;br&gt;&lt;/div&gt;" style="edgeLabel;html=1;align=center;verticalAlign=middle;resizable=0;points=[];labelBackgroundColor=default;labelBorderColor=default;" vertex="1" connectable="0" parent="U2JALLylXtxmvCifsnrc-10">
                    <mxGeometry x="-0.3998" relative="1" as="geometry">
                        <mxPoint x="-100" y="-19" as="offset"/>
                    </mxGeometry>
                </mxCell>
                <mxCell id="U2JALLylXtxmvCifsnrc-47" value="" style="edgeStyle=none;html=1;" edge="1" parent="U2JALLylXtxmvCifsnrc-1" source="U2JALLylXtxmvCifsnrc-2">
                    <mxGeometry relative="1" as="geometry">
                        <mxPoint x="480" y="210" as="targetPoint"/>
                    </mxGeometry>
                </mxCell>
                <mxCell id="U2JALLylXtxmvCifsnrc-48" value="2 - Posta uma solicitação&amp;nbsp;&lt;div&gt;de simulação em uma fila&lt;br&gt;&amp;nbsp;e aguarda&amp;nbsp;&lt;span style=&quot;background-color: light-dark(#ffffff, var(--ge-dark-color, #121212));&quot;&gt;o retorno de acordo&lt;/span&gt;&lt;/div&gt;&lt;div&gt;&lt;span style=&quot;background-color: light-dark(#ffffff, var(--ge-dark-color, #121212));&quot;&gt;&amp;nbsp;com o&amp;nbsp;&lt;/span&gt;&lt;span style=&quot;background-color: light-dark(#ffffff, var(--ge-dark-color, #121212));&quot;&gt;tempo parametrizado&lt;/span&gt;&lt;/div&gt;&lt;div&gt;&lt;span style=&quot;background-color: light-dark(#ffffff, var(--ge-dark-color, #121212));&quot;&gt;&lt;br&gt;&lt;/span&gt;&lt;/div&gt;" style="edgeLabel;html=1;align=center;verticalAlign=middle;resizable=0;points=[];labelBorderColor=default;textShadow=0;" vertex="1" connectable="0" parent="U2JALLylXtxmvCifsnrc-47">
                    <mxGeometry x="0.1333" y="-1" relative="1" as="geometry">
                        <mxPoint x="-12" y="39" as="offset"/>
                    </mxGeometry>
                </mxCell>
                <mxCell id="U2JALLylXtxmvCifsnrc-2" value="BFF -&lt;div&gt;Backend for Frontend&lt;/div&gt;" style="rounded=1;whiteSpace=wrap;html=1;" vertex="1" parent="U2JALLylXtxmvCifsnrc-1">
                    <mxGeometry x="180" y="180" width="120" height="60" as="geometry"/>
                </mxCell>
                <mxCell id="U2JALLylXtxmvCifsnrc-20" style="edgeStyle=none;html=1;entryX=0;entryY=0.5;entryDx=0;entryDy=0;" edge="1" parent="U2JALLylXtxmvCifsnrc-1" source="U2JALLylXtxmvCifsnrc-3" target="U2JALLylXtxmvCifsnrc-18">
                    <mxGeometry relative="1" as="geometry"/>
                </mxCell>
                <mxCell id="U2JALLylXtxmvCifsnrc-3" value="Actor" style="shape=umlActor;verticalLabelPosition=bottom;verticalAlign=top;html=1;outlineConnect=0;" vertex="1" parent="U2JALLylXtxmvCifsnrc-1">
                    <mxGeometry x="30" y="90" width="20" height="40" as="geometry"/>
                </mxCell>
                <mxCell id="U2JALLylXtxmvCifsnrc-9" value="Serviços de Clientes" style="rounded=1;whiteSpace=wrap;html=1;" vertex="1" parent="U2JALLylXtxmvCifsnrc-1">
                    <mxGeometry x="50" y="310" width="120" height="60" as="geometry"/>
                </mxCell>
                <mxCell id="U2JALLylXtxmvCifsnrc-11" value="Parametros de sistema" style="rounded=1;whiteSpace=wrap;html=1;" vertex="1" parent="U2JALLylXtxmvCifsnrc-1">
                    <mxGeometry x="50" y="390" width="120" height="60" as="geometry"/>
                </mxCell>
                <mxCell id="U2JALLylXtxmvCifsnrc-19" style="edgeStyle=none;html=1;entryX=0.5;entryY=0;entryDx=0;entryDy=0;" edge="1" parent="U2JALLylXtxmvCifsnrc-1" source="U2JALLylXtxmvCifsnrc-18" target="U2JALLylXtxmvCifsnrc-2">
                    <mxGeometry relative="1" as="geometry"/>
                </mxCell>
                <mxCell id="U2JALLylXtxmvCifsnrc-18" value="Frontend&amp;nbsp;&lt;div&gt;(mobile - web)&lt;/div&gt;" style="rounded=1;whiteSpace=wrap;html=1;" vertex="1" parent="U2JALLylXtxmvCifsnrc-1">
                    <mxGeometry x="180" y="80" width="120" height="60" as="geometry"/>
                </mxCell>
                <mxCell id="U2JALLylXtxmvCifsnrc-54" style="edgeStyle=none;html=1;exitX=0.5;exitY=1;exitDx=0;exitDy=0;entryX=0.5;entryY=0;entryDx=0;entryDy=0;" edge="1" parent="U2JALLylXtxmvCifsnrc-1" source="U2JALLylXtxmvCifsnrc-49" target="U2JALLylXtxmvCifsnrc-52">
                    <mxGeometry relative="1" as="geometry"/>
                </mxCell>
                <mxCell id="U2JALLylXtxmvCifsnrc-56" value="Sim" style="edgeLabel;html=1;align=center;verticalAlign=middle;resizable=0;points=[];" vertex="1" connectable="0" parent="U2JALLylXtxmvCifsnrc-54">
                    <mxGeometry x="-0.2667" y="2" relative="1" as="geometry">
                        <mxPoint as="offset"/>
                    </mxGeometry>
                </mxCell>
                <mxCell id="U2JALLylXtxmvCifsnrc-60" style="edgeStyle=none;html=1;exitX=1;exitY=0.5;exitDx=0;exitDy=0;entryX=0;entryY=0.5;entryDx=0;entryDy=0;" edge="1" parent="U2JALLylXtxmvCifsnrc-1" source="U2JALLylXtxmvCifsnrc-49" target="U2JALLylXtxmvCifsnrc-59">
                    <mxGeometry relative="1" as="geometry"/>
                </mxCell>
                <mxCell id="U2JALLylXtxmvCifsnrc-61" value="Não" style="edgeLabel;html=1;align=center;verticalAlign=middle;resizable=0;points=[];" vertex="1" connectable="0" parent="U2JALLylXtxmvCifsnrc-60">
                    <mxGeometry x="-0.06" y="-1" relative="1" as="geometry">
                        <mxPoint as="offset"/>
                    </mxGeometry>
                </mxCell>
                <mxCell id="U2JALLylXtxmvCifsnrc-49" value="" style="rhombus;whiteSpace=wrap;html=1;" vertex="1" parent="U2JALLylXtxmvCifsnrc-1">
                    <mxGeometry x="480" y="180" width="60" height="60" as="geometry"/>
                </mxCell>
                <mxCell id="U2JALLylXtxmvCifsnrc-55" style="edgeStyle=none;html=1;entryX=0.825;entryY=1;entryDx=0;entryDy=0;entryPerimeter=0;" edge="1" parent="U2JALLylXtxmvCifsnrc-1" source="U2JALLylXtxmvCifsnrc-52" target="U2JALLylXtxmvCifsnrc-2">
                    <mxGeometry relative="1" as="geometry">
                        <Array as="points">
                            <mxPoint x="279" y="360"/>
                        </Array>
                    </mxGeometry>
                </mxCell>
                <mxCell id="U2JALLylXtxmvCifsnrc-52" value="Devolve simulação para o frontend" style="rounded=1;whiteSpace=wrap;html=1;" vertex="1" parent="U2JALLylXtxmvCifsnrc-1">
                    <mxGeometry x="450" y="330" width="120" height="60" as="geometry"/>
                </mxCell>
                <mxCell id="U2JALLylXtxmvCifsnrc-53" value="&lt;span style=&quot;color: rgb(0, 0, 0); text-wrap-mode: wrap;&quot;&gt;&lt;font style=&quot;font-size: 11px;&quot;&gt;Simulação foi concluida&amp;nbsp;&lt;/font&gt;&lt;/span&gt;&lt;div&gt;&lt;span style=&quot;color: rgb(0, 0, 0); text-wrap-mode: wrap;&quot;&gt;&lt;font style=&quot;font-size: 11px;&quot;&gt;no tempo esperado?&lt;/font&gt;&lt;/span&gt;&lt;/div&gt;" style="text;html=1;align=center;verticalAlign=middle;resizable=0;points=[];autosize=1;strokeColor=none;fillColor=none;" vertex="1" parent="U2JALLylXtxmvCifsnrc-1">
                    <mxGeometry x="435" y="120" width="150" height="40" as="geometry"/>
                </mxCell>
                <mxCell id="U2JALLylXtxmvCifsnrc-59" value="Finaliza a solicitação&lt;div&gt;e devolve uma mensagem amigável&lt;/div&gt;" style="rounded=1;whiteSpace=wrap;html=1;" vertex="1" parent="U2JALLylXtxmvCifsnrc-1">
                    <mxGeometry x="640" y="180" width="120" height="60" as="geometry"/>
                </mxCell>
            </root>
        </mxGraphModel>
    </diagram>
    <diagram id="zOHh2VCjxh-3l9KgyWUx" name="Serviços de Informações de Cliente">
        <mxGraphModel dx="1695" dy="795" grid="1" gridSize="10" guides="1" tooltips="1" connect="1" arrows="1" fold="1" page="1" pageScale="1" pageWidth="850" pageHeight="1100" math="0" shadow="0">
            <root>
                <mxCell id="0"/>
                <mxCell id="1" parent="0"/>
                <mxCell id="9iEhLw7X0Ow8dCU-VWBi-1" value="Frontend -&amp;gt; BFF" style="swimlane;whiteSpace=wrap;html=1;" vertex="1" parent="1">
                    <mxGeometry x="120" y="120" width="200" height="330" as="geometry"/>
                </mxCell>
                <mxCell id="9iEhLw7X0Ow8dCU-VWBi-3" value="BFF" style="rounded=1;whiteSpace=wrap;html=1;" vertex="1" parent="9iEhLw7X0Ow8dCU-VWBi-1">
                    <mxGeometry x="40" y="50" width="120" height="60" as="geometry"/>
                </mxCell>
                <mxCell id="9iEhLw7X0Ow8dCU-VWBi-2" value="Serviços de Clientes" style="swimlane;whiteSpace=wrap;html=1;" vertex="1" parent="1">
                    <mxGeometry x="320" y="120" width="520" height="330" as="geometry"/>
                </mxCell>
                <mxCell id="9iEhLw7X0Ow8dCU-VWBi-7" value="" style="edgeStyle=none;html=1;" edge="1" parent="9iEhLw7X0Ow8dCU-VWBi-2" source="9iEhLw7X0Ow8dCU-VWBi-4" target="9iEhLw7X0Ow8dCU-VWBi-6">
                    <mxGeometry relative="1" as="geometry"/>
                </mxCell>
                <mxCell id="9iEhLw7X0Ow8dCU-VWBi-9" value="" style="edgeStyle=none;html=1;" edge="1" parent="9iEhLw7X0Ow8dCU-VWBi-2" source="9iEhLw7X0Ow8dCU-VWBi-4" target="9iEhLw7X0Ow8dCU-VWBi-8">
                    <mxGeometry relative="1" as="geometry"/>
                </mxCell>
                <mxCell id="9iEhLw7X0Ow8dCU-VWBi-11" value="" style="edgeStyle=none;html=1;" edge="1" parent="9iEhLw7X0Ow8dCU-VWBi-2" source="9iEhLw7X0Ow8dCU-VWBi-4" target="9iEhLw7X0Ow8dCU-VWBi-10">
                    <mxGeometry relative="1" as="geometry">
                        <Array as="points">
                            <mxPoint x="100" y="240"/>
                        </Array>
                    </mxGeometry>
                </mxCell>
                <mxCell id="9iEhLw7X0Ow8dCU-VWBi-4" value="Orquestrador de&amp;nbsp;&lt;div&gt;Dados de Clientes&lt;/div&gt;" style="rounded=1;whiteSpace=wrap;html=1;" vertex="1" parent="9iEhLw7X0Ow8dCU-VWBi-2">
                    <mxGeometry x="40" y="50" width="120" height="60" as="geometry"/>
                </mxCell>
                <mxCell id="9iEhLw7X0Ow8dCU-VWBi-6" value="Dados Cadastrais" style="rounded=1;whiteSpace=wrap;html=1;" vertex="1" parent="9iEhLw7X0Ow8dCU-VWBi-2">
                    <mxGeometry x="200" y="50" width="120" height="60" as="geometry"/>
                </mxCell>
                <mxCell id="9iEhLw7X0Ow8dCU-VWBi-8" value="Riscos&lt;div&gt;Consulta Score&lt;/div&gt;" style="rounded=1;whiteSpace=wrap;html=1;" vertex="1" parent="9iEhLw7X0Ow8dCU-VWBi-2">
                    <mxGeometry x="200" y="130" width="120" height="60" as="geometry"/>
                </mxCell>
                <mxCell id="9iEhLw7X0Ow8dCU-VWBi-10" value="Dados financeiros&lt;br&gt;Cliente já possui emprestimo" style="rounded=1;whiteSpace=wrap;html=1;" vertex="1" parent="9iEhLw7X0Ow8dCU-VWBi-2">
                    <mxGeometry x="200" y="210" width="120" height="60" as="geometry"/>
                </mxCell>
                <mxCell id="9iEhLw7X0Ow8dCU-VWBi-12" value="Idade, nome da mãe, endereço, é correntista?" style="text;html=1;align=center;verticalAlign=middle;whiteSpace=wrap;rounded=0;" vertex="1" parent="9iEhLw7X0Ow8dCU-VWBi-2">
                    <mxGeometry x="340" y="65" width="140" height="30" as="geometry"/>
                </mxCell>
                <mxCell id="9iEhLw7X0Ow8dCU-VWBi-13" value="Score do cliente, possui inadimplência? Se sim, oferecer taxas maiores" style="text;html=1;align=center;verticalAlign=middle;whiteSpace=wrap;rounded=0;" vertex="1" parent="9iEhLw7X0Ow8dCU-VWBi-2">
                    <mxGeometry x="350" y="145" width="140" height="30" as="geometry"/>
                </mxCell>
                <mxCell id="9iEhLw7X0Ow8dCU-VWBi-14" value="Possui emprestimos para refinanciar? Oferecer simulação de Refin + Novo" style="text;html=1;align=center;verticalAlign=middle;whiteSpace=wrap;rounded=0;" vertex="1" parent="9iEhLw7X0Ow8dCU-VWBi-2">
                    <mxGeometry x="350" y="225" width="140" height="30" as="geometry"/>
                </mxCell>
                <mxCell id="9iEhLw7X0Ow8dCU-VWBi-16" value="" style="endArrow=classic;startArrow=classic;html=1;exitX=1;exitY=0.5;exitDx=0;exitDy=0;entryX=0;entryY=0.5;entryDx=0;entryDy=0;" edge="1" parent="1" source="9iEhLw7X0Ow8dCU-VWBi-3" target="9iEhLw7X0Ow8dCU-VWBi-4">
                    <mxGeometry width="50" height="50" relative="1" as="geometry">
                        <mxPoint x="400" y="430" as="sourcePoint"/>
                        <mxPoint x="450" y="380" as="targetPoint"/>
                    </mxGeometry>
                </mxCell>
            </root>
        </mxGraphModel>
    </diagram>
    <diagram id="U5Rh7C2fA4RR9JVg3SwI" name="Orquestrador de Motor de Cálculo">
        <mxGraphModel grid="1" page="1" gridSize="10" guides="1" tooltips="1" connect="1" arrows="1" fold="1" pageScale="1" pageWidth="850" pageHeight="1100" math="0" shadow="0">
            <root>
                <mxCell id="0"/>
                <mxCell id="1" parent="0"/>
                <mxCell id="s4PQYvLIOXTGo5QdNytG-1" value="BFF" style="swimlane;whiteSpace=wrap;html=1;" vertex="1" parent="1">
                    <mxGeometry x="40" y="80" width="200" height="600" as="geometry"/>
                </mxCell>
                <mxCell id="s4PQYvLIOXTGo5QdNytG-2" value="BFF&amp;nbsp;&lt;div&gt;Frontend&lt;/div&gt;" style="rounded=1;whiteSpace=wrap;html=1;" vertex="1" parent="s4PQYvLIOXTGo5QdNytG-1">
                    <mxGeometry x="40" y="40" width="120" height="60" as="geometry"/>
                </mxCell>
                <mxCell id="s4PQYvLIOXTGo5QdNytG-12" value="BFF posta uma mensagem na fila e aguarda o tempo determinado, se o orquestrador não devolver em tempo hábil, cancela espera e devolve mensagem amigável para o frontend" style="text;html=1;align=center;verticalAlign=middle;whiteSpace=wrap;rounded=0;glass=0;fillColor=none;strokeColor=none;labelBackgroundColor=none;" vertex="1" parent="s4PQYvLIOXTGo5QdNytG-1">
                    <mxGeometry x="10" y="150" width="180" height="30" as="geometry"/>
                </mxCell>
                <mxCell id="s4PQYvLIOXTGo5QdNytG-4" value="Fila Simulação Empréstimo" style="swimlane;whiteSpace=wrap;html=1;" vertex="1" parent="1">
                    <mxGeometry x="240" y="80" width="200" height="600" as="geometry"/>
                </mxCell>
                <mxCell id="s4PQYvLIOXTGo5QdNytG-6" value="RabbitMq&lt;br&gt;Kafka" style="rounded=1;whiteSpace=wrap;html=1;" vertex="1" parent="s4PQYvLIOXTGo5QdNytG-4">
                    <mxGeometry x="40" y="40" width="120" height="60" as="geometry"/>
                </mxCell>
                <mxCell id="s4PQYvLIOXTGo5QdNytG-8" value="Orquestrador de Cálculo" style="swimlane;whiteSpace=wrap;html=1;" vertex="1" parent="1">
                    <mxGeometry x="440" y="80" width="200" height="600" as="geometry"/>
                </mxCell>
                <mxCell id="s4PQYvLIOXTGo5QdNytG-32" style="edgeStyle=none;html=1;exitX=0.5;exitY=1;exitDx=0;exitDy=0;entryX=0.5;entryY=0;entryDx=0;entryDy=0;" edge="1" parent="s4PQYvLIOXTGo5QdNytG-8" source="s4PQYvLIOXTGo5QdNytG-9" target="s4PQYvLIOXTGo5QdNytG-26">
                    <mxGeometry relative="1" as="geometry"/>
                </mxCell>
                <mxCell id="s4PQYvLIOXTGo5QdNytG-33" value="&lt;span style=&quot;font-size: 12px; text-wrap-mode: wrap; background-color: rgb(251, 251, 251); color: rgb(0, 0, 0);&quot;&gt;Consulta banco de cache&amp;nbsp;&lt;/span&gt;&lt;div style=&quot;font-size: 12px; background-color: rgb(251, 251, 251);&quot;&gt;&lt;span style=&quot;text-wrap-mode: wrap; color: rgb(0, 0, 0);&quot;&gt;para obter simulações recentes&lt;/span&gt;&lt;/div&gt;" style="edgeLabel;html=1;align=center;verticalAlign=middle;resizable=0;points=[];" vertex="1" connectable="0" parent="s4PQYvLIOXTGo5QdNytG-32">
                    <mxGeometry x="-0.0909" relative="1" as="geometry">
                        <mxPoint as="offset"/>
                    </mxGeometry>
                </mxCell>
                <mxCell id="s4PQYvLIOXTGo5QdNytG-9" value="Orquestrador" style="rounded=1;whiteSpace=wrap;html=1;" vertex="1" parent="s4PQYvLIOXTGo5QdNytG-8">
                    <mxGeometry x="40" y="40" width="120" height="60" as="geometry"/>
                </mxCell>
                <mxCell id="s4PQYvLIOXTGo5QdNytG-26" value="Possui simulação recente?" style="rhombus;whiteSpace=wrap;html=1;rounded=1;" vertex="1" parent="s4PQYvLIOXTGo5QdNytG-8">
                    <mxGeometry x="60" y="210" width="80" height="80" as="geometry"/>
                </mxCell>
                <mxCell id="s4PQYvLIOXTGo5QdNytG-10" value="" style="endArrow=classic;startArrow=classic;html=1;exitX=1;exitY=0.5;exitDx=0;exitDy=0;" edge="1" parent="1" source="s4PQYvLIOXTGo5QdNytG-6">
                    <mxGeometry width="50" height="50" relative="1" as="geometry">
                        <mxPoint x="400" y="430" as="sourcePoint"/>
                        <mxPoint x="479" y="150" as="targetPoint"/>
                    </mxGeometry>
                </mxCell>
                <mxCell id="s4PQYvLIOXTGo5QdNytG-11" value="" style="endArrow=classic;startArrow=classic;html=1;exitX=1;exitY=0.5;exitDx=0;exitDy=0;" edge="1" parent="1" source="s4PQYvLIOXTGo5QdNytG-2" target="s4PQYvLIOXTGo5QdNytG-6">
                    <mxGeometry width="50" height="50" relative="1" as="geometry">
                        <mxPoint x="400" y="430" as="sourcePoint"/>
                        <mxPoint x="450" y="380" as="targetPoint"/>
                    </mxGeometry>
                </mxCell>
                <mxCell id="s4PQYvLIOXTGo5QdNytG-13" value="Camada de aplicaçẽos simulação de empréstimo" style="swimlane;whiteSpace=wrap;html=1;" vertex="1" parent="1">
                    <mxGeometry x="640" y="80" width="580" height="600" as="geometry"/>
                </mxCell>
                <mxCell id="s4PQYvLIOXTGo5QdNytG-14" value="Taxas e Faixas" style="rounded=1;whiteSpace=wrap;html=1;" vertex="1" parent="s4PQYvLIOXTGo5QdNytG-13">
                    <mxGeometry x="210" y="40" width="120" height="60" as="geometry"/>
                </mxCell>
                <mxCell id="s4PQYvLIOXTGo5QdNytG-16" value="Obtém faixas de taxas de juros de acordo com os dados do cliente, idade, dados bancários, risco de crédito" style="text;html=1;align=center;verticalAlign=middle;whiteSpace=wrap;rounded=0;labelBackgroundColor=default;" vertex="1" parent="s4PQYvLIOXTGo5QdNytG-13">
                    <mxGeometry x="340" y="55" width="210" height="35" as="geometry"/>
                </mxCell>
                <mxCell id="s4PQYvLIOXTGo5QdNytG-17" value="Realiza cálculo e monta retorno de simulação" style="rounded=1;whiteSpace=wrap;html=1;" vertex="1" parent="s4PQYvLIOXTGo5QdNytG-13">
                    <mxGeometry x="210" y="130" width="120" height="60" as="geometry"/>
                </mxCell>
                <mxCell id="s4PQYvLIOXTGo5QdNytG-18" value="Com base nos dados obtidos, realiza cálculo de simulação" style="text;html=1;align=center;verticalAlign=middle;whiteSpace=wrap;rounded=0;labelBackgroundColor=default;" vertex="1" parent="s4PQYvLIOXTGo5QdNytG-13">
                    <mxGeometry x="350" y="142.5" width="210" height="35" as="geometry"/>
                </mxCell>
                <mxCell id="s4PQYvLIOXTGo5QdNytG-42" value="" style="edgeStyle=none;html=1;" edge="1" parent="s4PQYvLIOXTGo5QdNytG-13" source="s4PQYvLIOXTGo5QdNytG-19" target="s4PQYvLIOXTGo5QdNytG-40">
                    <mxGeometry relative="1" as="geometry"/>
                </mxCell>
                <mxCell id="s4PQYvLIOXTGo5QdNytG-19" value="Salva dados de simulação no banco de cache" style="rounded=1;whiteSpace=wrap;html=1;" vertex="1" parent="s4PQYvLIOXTGo5QdNytG-13">
                    <mxGeometry x="210" y="220" width="120" height="60" as="geometry"/>
                </mxCell>
                <mxCell id="s4PQYvLIOXTGo5QdNytG-20" value="Salva os dados da nova simulação,&lt;div&gt;Não pode ser bloqueante, caso o banco esteja indisponível seguir com fluxo&lt;/div&gt;" style="text;html=1;align=center;verticalAlign=middle;whiteSpace=wrap;rounded=0;labelBackgroundColor=default;" vertex="1" parent="s4PQYvLIOXTGo5QdNytG-13">
                    <mxGeometry x="350" y="232.5" width="210" height="35" as="geometry"/>
                </mxCell>
                <mxCell id="s4PQYvLIOXTGo5QdNytG-40" value="Notifica cliente através de push ou email atravé de serviço externo" style="rounded=1;whiteSpace=wrap;html=1;" vertex="1" parent="s4PQYvLIOXTGo5QdNytG-13">
                    <mxGeometry x="210" y="310" width="120" height="60" as="geometry"/>
                </mxCell>
                <mxCell id="s4PQYvLIOXTGo5QdNytG-41" value="Notifica o cliente que sua simulação foi concluída, importante caso o cliente feche a tela ou a simulação demore mais que o permitido" style="text;html=1;align=center;verticalAlign=middle;whiteSpace=wrap;rounded=0;labelBackgroundColor=default;" vertex="1" parent="s4PQYvLIOXTGo5QdNytG-13">
                    <mxGeometry x="350" y="322.5" width="210" height="35" as="geometry"/>
                </mxCell>
                <mxCell id="s4PQYvLIOXTGo5QdNytG-29" style="edgeStyle=none;html=1;entryX=0.75;entryY=1;entryDx=0;entryDy=0;" edge="1" parent="1" source="s4PQYvLIOXTGo5QdNytG-26" target="s4PQYvLIOXTGo5QdNytG-6">
                    <mxGeometry relative="1" as="geometry">
                        <Array as="points">
                            <mxPoint x="370" y="330"/>
                        </Array>
                    </mxGeometry>
                </mxCell>
                <mxCell id="s4PQYvLIOXTGo5QdNytG-35" value="Sim - Devolve dados&lt;div&gt;de simulação para&amp;nbsp; fila&lt;/div&gt;" style="edgeLabel;html=1;align=center;verticalAlign=middle;resizable=0;points=[];" vertex="1" connectable="0" parent="s4PQYvLIOXTGo5QdNytG-29">
                    <mxGeometry x="0.4129" relative="1" as="geometry">
                        <mxPoint as="offset"/>
                    </mxGeometry>
                </mxCell>
                <mxCell id="s4PQYvLIOXTGo5QdNytG-36" style="edgeStyle=none;html=1;entryX=0;entryY=0.5;entryDx=0;entryDy=0;" edge="1" parent="1" source="s4PQYvLIOXTGo5QdNytG-26" target="s4PQYvLIOXTGo5QdNytG-14">
                    <mxGeometry relative="1" as="geometry">
                        <Array as="points">
                            <mxPoint x="720" y="330"/>
                            <mxPoint x="720" y="150"/>
                        </Array>
                    </mxGeometry>
                </mxCell>
                <mxCell id="s4PQYvLIOXTGo5QdNytG-37" value="Não - Segue com&amp;nbsp;&lt;div&gt;Simulação&lt;/div&gt;" style="edgeLabel;html=1;align=center;verticalAlign=middle;resizable=0;points=[];labelBackgroundColor=default;" vertex="1" connectable="0" parent="s4PQYvLIOXTGo5QdNytG-36">
                    <mxGeometry x="-0.68" y="2" relative="1" as="geometry">
                        <mxPoint as="offset"/>
                    </mxGeometry>
                </mxCell>
                <mxCell id="s4PQYvLIOXTGo5QdNytG-38" style="edgeStyle=none;html=1;entryX=0;entryY=0.5;entryDx=0;entryDy=0;" edge="1" parent="1" source="s4PQYvLIOXTGo5QdNytG-26" target="s4PQYvLIOXTGo5QdNytG-17">
                    <mxGeometry relative="1" as="geometry">
                        <Array as="points">
                            <mxPoint x="720" y="330"/>
                            <mxPoint x="720" y="240"/>
                        </Array>
                    </mxGeometry>
                </mxCell>
                <mxCell id="s4PQYvLIOXTGo5QdNytG-39" style="edgeStyle=none;html=1;entryX=0;entryY=0.5;entryDx=0;entryDy=0;" edge="1" parent="1" source="s4PQYvLIOXTGo5QdNytG-26" target="s4PQYvLIOXTGo5QdNytG-19">
                    <mxGeometry relative="1" as="geometry"/>
                </mxCell>
                <mxCell id="s4PQYvLIOXTGo5QdNytG-43" style="edgeStyle=none;html=1;exitX=0;exitY=0.5;exitDx=0;exitDy=0;entryX=0.25;entryY=1;entryDx=0;entryDy=0;" edge="1" parent="1" source="s4PQYvLIOXTGo5QdNytG-40" target="s4PQYvLIOXTGo5QdNytG-6">
                    <mxGeometry relative="1" as="geometry">
                        <Array as="points">
                            <mxPoint x="310" y="420"/>
                        </Array>
                    </mxGeometry>
                </mxCell>
                <mxCell id="s4PQYvLIOXTGo5QdNytG-44" value="Devolve mensagem de sucesso para&lt;div&gt;a fila com os dados da simulação&lt;/div&gt;" style="edgeLabel;html=1;align=center;verticalAlign=middle;resizable=0;points=[];" vertex="1" connectable="0" parent="s4PQYvLIOXTGo5QdNytG-43">
                    <mxGeometry x="-0.1795" y="-2" relative="1" as="geometry">
                        <mxPoint x="10" y="2" as="offset"/>
                    </mxGeometry>
                </mxCell>
            </root>
        </mxGraphModel>
    </diagram>
</mxfile>
